<svg  viewBox="0 0 359 315" fill="none" xmlns="http://www.w3.org/2000/svg">
<path d="M0 70H480V315H0V70Z" fill="#DFF0FE"/>
<g filter="url(#filter0_d)">
<path d="M63 74C63 60.7452 73.7452 50 87 50H393C406.255 50 417 60.7452 417 74V122C417 135.255 406.255 146 393 146H87C73.7452 146 63 135.255 63 122V74Z" fill="#64BCFF"/>
</g>
<path d="M116.497 88.4844H124.2V110H127.919V88.4844H135.634V85.2727H116.497V88.4844ZM143.183 98.9886C143.183 96.0305 145.055 94.3402 147.627 94.3402C150.114 94.3402 151.599 95.9219 151.599 98.6385V110H155.209V98.2038C155.209 93.5795 152.673 91.2131 148.858 91.2131C145.972 91.2131 144.234 92.4688 143.365 94.473H143.135V85.2727H139.573V110H143.183V98.9886ZM160.026 110H163.637V91.4545H160.026V110ZM161.85 88.593C163.093 88.593 164.132 87.6271 164.132 86.4439C164.132 85.2607 163.093 84.2827 161.85 84.2827C160.594 84.2827 159.568 85.2607 159.568 86.4439C159.568 87.6271 160.594 88.593 161.85 88.593ZM182.39 95.9822C181.642 93.0966 179.384 91.2131 175.375 91.2131C171.186 91.2131 168.216 93.4226 168.216 96.7067C168.216 99.3388 169.809 101.089 173.287 101.862L176.426 102.55C178.213 102.949 179.046 103.746 179.046 104.905C179.046 106.342 177.512 107.464 175.146 107.464C172.985 107.464 171.596 106.535 171.162 104.712L167.672 105.243C168.276 108.527 171.005 110.374 175.17 110.374C179.65 110.374 182.752 107.996 182.752 104.639C182.752 102.019 181.086 100.401 177.681 99.6165L174.735 98.9403C172.695 98.4574 171.814 97.7692 171.826 96.5135C171.814 95.0888 173.359 94.0746 175.412 94.0746C177.657 94.0746 178.696 95.3182 179.118 96.5618L182.39 95.9822ZM195.72 110H199.33V91.4545H195.72V110ZM197.543 88.593C198.787 88.593 199.825 87.6271 199.825 86.4439C199.825 85.2607 198.787 84.2827 197.543 84.2827C196.287 84.2827 195.261 85.2607 195.261 86.4439C195.261 87.6271 196.287 88.593 197.543 88.593ZM218.084 95.9822C217.335 93.0966 215.077 91.2131 211.069 91.2131C206.879 91.2131 203.909 93.4226 203.909 96.7067C203.909 99.3388 205.503 101.089 208.98 101.862L212.119 102.55C213.906 102.949 214.739 103.746 214.739 104.905C214.739 106.342 213.206 107.464 210.839 107.464C208.678 107.464 207.29 106.535 206.855 104.712L203.366 105.243C203.969 108.527 206.698 110.374 210.863 110.374C215.343 110.374 218.446 107.996 218.446 104.639C218.446 102.019 216.78 100.401 213.375 99.6165L210.429 98.9403C208.388 98.4574 207.507 97.7692 207.519 96.5135C207.507 95.0888 209.052 94.0746 211.105 94.0746C213.351 94.0746 214.389 95.3182 214.812 96.5618L218.084 95.9822ZM236.81 110.411C239.877 110.411 241.604 108.853 242.292 107.464H242.437V110H245.962V97.6847C245.962 92.2876 241.712 91.2131 238.766 91.2131C235.41 91.2131 232.319 92.5653 231.111 95.946L234.504 96.7188C235.035 95.4027 236.388 94.1349 238.814 94.1349C241.145 94.1349 242.34 95.3544 242.34 97.4553V97.5398C242.34 98.8558 240.988 98.8317 237.655 99.218C234.142 99.6286 230.544 100.546 230.544 104.76C230.544 108.406 233.285 110.411 236.81 110.411ZM237.595 107.513C235.555 107.513 234.081 106.595 234.081 104.808C234.081 102.876 235.796 102.188 237.885 101.911C239.056 101.754 241.833 101.44 242.352 100.92V103.311C242.352 105.509 240.601 107.513 237.595 107.513ZM260.058 110H263.584V107.114H263.886C264.538 108.298 265.866 110.362 269.247 110.362C273.738 110.362 276.998 106.764 276.998 100.763C276.998 94.7507 273.69 91.2131 269.21 91.2131C265.769 91.2131 264.526 93.3139 263.886 94.4609H263.669V85.2727H260.058V110ZM263.596 100.727C263.596 96.8516 265.286 94.2798 268.438 94.2798C271.71 94.2798 273.352 97.0447 273.352 100.727C273.352 104.446 271.661 107.283 268.438 107.283C265.335 107.283 263.596 104.627 263.596 100.727ZM292.8 102.309C292.812 105.46 290.469 106.957 288.441 106.957C286.207 106.957 284.662 105.339 284.662 102.816V91.4545H281.052V103.251C281.052 107.851 283.575 110.241 287.137 110.241C289.926 110.241 291.822 108.768 292.679 106.788H292.872V110H296.422V91.4545H292.8V102.309ZM309.93 91.4545H306.126V87.0114H302.516V91.4545H299.8V94.3523H302.516V105.303C302.504 108.672 305.076 110.302 307.925 110.241C309.072 110.229 309.845 110.012 310.268 109.855L309.616 106.873C309.374 106.921 308.927 107.03 308.348 107.03C307.177 107.03 306.126 106.643 306.126 104.555V94.3523H309.93V91.4545ZM322.58 91.4545H318.777V87.0114H315.167V91.4545H312.45V94.3523H315.167V105.303C315.154 108.672 317.726 110.302 320.576 110.241C321.723 110.229 322.495 110.012 322.918 109.855L322.266 106.873C322.025 106.921 321.578 107.03 320.998 107.03C319.827 107.03 318.777 106.643 318.777 104.555V94.3523H322.58V91.4545ZM334.186 110.374C339.414 110.374 342.831 106.547 342.831 100.812C342.831 95.0405 339.414 91.2131 334.186 91.2131C328.958 91.2131 325.541 95.0405 325.541 100.812C325.541 106.547 328.958 110.374 334.186 110.374ZM334.198 107.344C330.781 107.344 329.187 104.362 329.187 100.8C329.187 97.25 330.781 94.2315 334.198 94.2315C337.591 94.2315 339.184 97.25 339.184 100.8C339.184 104.362 337.591 107.344 334.198 107.344ZM350.471 98.9886C350.471 96.0305 352.282 94.3402 354.793 94.3402C357.244 94.3402 358.729 95.946 358.729 98.6385V110H362.339V98.2038C362.339 93.6158 359.816 91.2131 356.025 91.2131C353.235 91.2131 351.412 92.505 350.555 94.473H350.326V91.4545H346.86V110H350.471V98.9886Z" fill="white"/>
<g filter="url(#filter1_dd)">
<circle cx="82" cy="69" r="62" fill="url(#paint0_linear)"/>
<circle cx="82" cy="69" r="62.75" stroke="#242447" stroke-opacity="0.1" stroke-width="1.5"/>
</g>
<mask id="mask0" mask-type="alpha" maskUnits="userSpaceOnUse" x="26" y="13" width="112" height="112">
<circle cx="82.0004" cy="68.9999" r="55.641" fill="#9F9F9F"/>
</mask>
<g mask="url(#mask0)">
<rect x="58.1543" y="7" width="9.53846" height="9.53846" fill="#D7DEE4"/>
<rect opacity="0.9" x="67.6919" y="7" width="9.53846" height="9.53846" fill="#D7DEE4"/>
<rect opacity="0.8" x="77.2305" y="7" width="9.53846" height="9.53846" fill="#D7DEE4"/>
<rect opacity="0.7" x="86.7695" y="7" width="9.53846" height="9.53846" fill="#D7DEE4"/>
<rect opacity="0.8" x="20" y="45.1538" width="9.53846" height="9.53846" fill="#D7DEE4"/>
<rect opacity="0.6" x="20" y="54.6924" width="9.53846" height="9.53846" fill="#D7DEE4"/>
<rect opacity="0.4" x="20" y="64.231" width="9.53846" height="9.53846" fill="#D7DEE4"/>
<rect opacity="0.9" x="20" y="73.769" width="9.53846" height="9.53846" fill="#D7DEE4"/>
<rect opacity="0.7" x="20" y="83.3076" width="9.53846" height="9.53846" fill="#D7DEE4"/>
<rect opacity="0.6" x="29.5391" y="26.0771" width="9.53846" height="9.53846" fill="#D7DEE4"/>
<rect opacity="0.8" x="29.5391" y="35.6152" width="9.53846" height="9.53846" fill="#D7DEE4"/>
<rect opacity="0.9" x="29.5391" y="45.1538" width="9.53846" height="9.53846" fill="#D7DEE4"/>
<rect x="29.5391" y="54.6924" width="9.53846" height="9.53846" fill="#D7DEE4"/>
<rect opacity="0.9" x="29.5391" y="64.231" width="9.53846" height="9.53846" fill="#D7DEE4"/>
<rect opacity="0.7" x="29.5391" y="73.769" width="9.53846" height="9.53846" fill="#D7DEE4"/>
<rect opacity="0.3" x="29.5391" y="83.3076" width="9.53846" height="9.53846" fill="#53B7FF"/>
<rect opacity="0.5" x="29.5391" y="92.8462" width="9.53846" height="9.53846" fill="#53B7FF"/>
<rect opacity="0.4" x="29.5391" y="102.385" width="9.53846" height="9.53846" fill="#53B7FF"/>
<rect opacity="0.7" x="39.0762" y="16.5386" width="9.53846" height="9.53846" fill="#D7DEE4"/>
<rect opacity="0.6" x="39.0762" y="26.0771" width="9.53846" height="9.53846" fill="#D7DEE4"/>
<rect opacity="0.7" x="39.0762" y="35.6152" width="9.53846" height="9.53846" fill="#D7DEE4"/>
<rect opacity="0.8" x="39.0762" y="45.1538" width="9.53846" height="9.53846" fill="#D7DEE4"/>
<rect opacity="0.9" x="39.0762" y="54.6924" width="9.53846" height="9.53846" fill="#D7DEE4"/>
<rect opacity="0.4" x="39.0762" y="64.231" width="9.53846" height="9.53846" fill="#D7DEE4"/>
<rect opacity="0.5" x="39.0762" y="73.769" width="9.53846" height="9.53846" fill="#53B7FF"/>
<rect opacity="0.9" x="39.0762" y="83.3076" width="9.53846" height="9.53846" fill="#53B7FF"/>
<rect opacity="0.8" x="39.0762" y="92.8462" width="9.53846" height="9.53846" fill="#53B7FF"/>
<rect opacity="0.8" x="39.0762" y="102.385" width="9.53846" height="9.53846" fill="#53B7FF"/>
<rect opacity="0.9" x="39.0762" y="111.923" width="9.53846" height="9.53846" fill="#53B7FF"/>
<rect opacity="0.8" x="48.6152" y="16.5386" width="9.53846" height="9.53846" fill="#D7DEE4"/>
<rect x="48.6152" y="26.0771" width="9.53846" height="9.53846" fill="#D7DEE4"/>
<rect opacity="0.6" x="48.6152" y="35.6152" width="9.53846" height="9.53846" fill="#D7DEE4"/>
<rect opacity="0.7" x="48.6152" y="45.1538" width="9.53846" height="9.53846" fill="#D7DEE4"/>
<rect opacity="0.4" x="48.6152" y="54.6924" width="9.53846" height="9.53846" fill="#53B7FF"/>
<rect opacity="0.8" x="48.6152" y="64.231" width="9.53846" height="9.53846" fill="#53B7FF"/>
<rect opacity="0.6" x="48.6152" y="73.769" width="9.53846" height="9.53846" fill="#53B7FF"/>
<rect opacity="0.8" x="48.6152" y="83.3076" width="9.53846" height="9.53846" fill="#53B7FF"/>
<rect opacity="0.9" x="48.6152" y="92.8462" width="9.53846" height="9.53846" fill="#53B7FF"/>
<rect opacity="0.7" x="48.6152" y="102.385" width="9.53846" height="9.53846" fill="#53B7FF"/>
<rect opacity="0.5" x="48.6152" y="111.923" width="9.53846" height="9.53846" fill="#53B7FF"/>
<rect opacity="0.8" x="58.1543" y="16.5386" width="9.53846" height="9.53846" fill="#D7DEE4"/>
<rect opacity="0.6" x="58.1543" y="26.0771" width="9.53846" height="9.53846" fill="#D7DEE4"/>
<rect opacity="0.5" x="58.1543" y="35.6152" width="9.53846" height="9.53846" fill="#D7DEE4"/>
<rect opacity="0.6" x="58.1543" y="45.1538" width="9.53846" height="9.53846" fill="#53B7FF"/>
<rect opacity="0.8" x="58.1543" y="54.6924" width="9.53846" height="9.53846" fill="#53B7FF"/>
<rect opacity="0.9" x="58.1543" y="64.231" width="9.53846" height="9.53846" fill="#53B7FF"/>
<rect opacity="0.8" x="58.1543" y="73.769" width="9.53846" height="9.53846" fill="#53B7FF"/>
<rect opacity="0.6" x="58.1543" y="83.3076" width="9.53846" height="9.53846" fill="#53B7FF"/>
<rect opacity="0.5" x="58.1543" y="92.8462" width="9.53846" height="9.53846" fill="#53B7FF"/>
<rect opacity="0.4" x="58.1543" y="102.385" width="9.53846" height="9.53846" fill="#53B7FF"/>
<rect opacity="0.2" x="58.1543" y="111.923" width="9.53846" height="9.53846" fill="#53B7FF"/>
<rect opacity="0.6" x="58.1543" y="121.461" width="9.53846" height="9.53846" fill="#53B7FF"/>
<rect opacity="0.7" x="67.6919" y="16.5386" width="9.53846" height="9.53846" fill="#D7DEE4"/>
<rect opacity="0.5" x="67.6919" y="26.0771" width="9.53846" height="9.53846" fill="#D7DEE4"/>
<rect opacity="0.9" x="67.6919" y="35.6152" width="9.53846" height="9.53846" fill="#53B7FF"/>
<rect opacity="0.7" x="67.6919" y="45.1538" width="9.53846" height="9.53846" fill="#53B7FF"/>
<rect opacity="0.6" x="67.6919" y="54.6924" width="9.53846" height="9.53846" fill="#53B7FF"/>
<rect opacity="0.5" x="67.6919" y="64.231" width="9.53846" height="9.53846" fill="#53B7FF"/>
<rect opacity="0.7" x="67.6919" y="73.769" width="9.53846" height="9.53846" fill="#53B7FF"/>
<rect opacity="0.8" x="67.6919" y="83.3076" width="9.53846" height="9.53846" fill="#53B7FF"/>
<rect opacity="0.9" x="67.6919" y="92.8462" width="9.53846" height="9.53846" fill="#53B7FF"/>
<rect opacity="0.6" x="67.6919" y="102.385" width="9.53846" height="9.53846" fill="#53B7FF"/>
<rect opacity="0.4" x="67.6919" y="111.923" width="9.53846" height="9.53846" fill="#53B7FF"/>
<rect opacity="0.3" x="67.6919" y="121.461" width="9.53846" height="9.53846" fill="#53B7FF"/>
<rect opacity="0.6" x="77.2305" y="16.5386" width="9.53846" height="9.53846" fill="#D7DEE4"/>
<rect opacity="0.6" x="77.2305" y="26.0771" width="9.53846" height="9.53846" fill="#53B7FF"/>
<rect opacity="0.8" x="77.2305" y="35.6152" width="9.53846" height="9.53846" fill="#53B7FF"/>
<rect opacity="0.6" x="77.2305" y="45.1538" width="9.53846" height="9.53846" fill="#53B7FF"/>
<rect opacity="0.5" x="77.2305" y="54.6924" width="9.53846" height="9.53846" fill="#53B7FF"/>
<rect opacity="0.6" x="77.2305" y="64.231" width="9.53846" height="9.53846" fill="#53B7FF"/>
<rect opacity="0.8" x="77.2305" y="73.769" width="9.53846" height="9.53846" fill="#53B7FF"/>
<rect opacity="0.9" x="77.2305" y="83.3076" width="9.53846" height="9.53846" fill="#53B7FF"/>
<rect opacity="0.7" x="77.2305" y="92.8462" width="9.53846" height="9.53846" fill="#53B7FF"/>
<rect opacity="0.5" x="77.2305" y="102.385" width="9.53846" height="9.53846" fill="#53B7FF"/>
<rect opacity="0.7" x="77.2305" y="111.923" width="9.53846" height="9.53846" fill="#53B7FF"/>
<rect opacity="0.8" x="77.2305" y="121.461" width="9.53846" height="9.53846" fill="#53B7FF"/>
<rect opacity="0.8" x="86.7695" y="16.5386" width="9.53846" height="9.53846" fill="#53B7FF"/>
<rect opacity="0.6" x="86.7695" y="26.0771" width="9.53846" height="9.53846" fill="#53B7FF"/>
<rect opacity="0.5" x="86.7695" y="35.6152" width="9.53846" height="9.53846" fill="#53B7FF"/>
<rect opacity="0.7" x="86.7695" y="45.1538" width="9.53846" height="9.53846" fill="#53B7FF"/>
<rect opacity="0.6" x="86.7695" y="54.6924" width="9.53846" height="9.53846" fill="#53B7FF"/>
<rect opacity="0.5" x="86.7695" y="64.231" width="9.53846" height="9.53846" fill="#53B7FF"/>
<rect opacity="0.4" x="86.7695" y="73.769" width="9.53846" height="9.53846" fill="#53B7FF"/>
<rect opacity="0.5" x="86.7695" y="83.3076" width="9.53846" height="9.53846" fill="#53B7FF"/>
<rect opacity="0.6" x="86.7695" y="92.8462" width="9.53846" height="9.53846" fill="#53B7FF"/>
<rect opacity="0.7" x="86.7695" y="102.385" width="9.53846" height="9.53846" fill="#53B7FF"/>
<rect opacity="0.8" x="86.7695" y="111.923" width="9.53846" height="9.53846" fill="#53B7FF"/>
<rect opacity="0.9" x="86.7695" y="121.461" width="9.53846" height="9.53846" fill="#53B7FF"/>
<rect opacity="0.5" x="96.3081" y="26.0771" width="9.53846" height="9.53846" fill="#53B7FF"/>
<rect opacity="0.9" x="96.3081" y="16.5386" width="9.53846" height="9.53846" fill="#53B7FF"/>
<rect opacity="0.6" x="96.3081" y="35.6152" width="9.53846" height="9.53846" fill="#53B7FF"/>
<rect opacity="0.8" x="96.3081" y="45.1538" width="9.53846" height="9.53846" fill="#53B7FF"/>
<rect opacity="0.9" x="96.3081" y="54.6924" width="9.53846" height="9.53846" fill="#53B7FF"/>
<rect opacity="0.7" x="96.3081" y="64.231" width="9.53846" height="9.53846" fill="#53B7FF"/>
<rect opacity="0.6" x="96.3081" y="73.769" width="9.53846" height="9.53846" fill="#53B7FF"/>
<rect opacity="0.7" x="96.3081" y="83.3076" width="9.53846" height="9.53846" fill="#53B7FF"/>
<rect opacity="0.8" x="96.3081" y="92.8462" width="9.53846" height="9.53846" fill="#53B7FF"/>
<rect opacity="0.9" x="96.3081" y="102.385" width="9.53846" height="9.53846" fill="#53B7FF"/>
<rect opacity="0.8" x="96.3081" y="111.923" width="9.53846" height="9.53846" fill="#53B7FF"/>
<rect opacity="0.2" x="96.3081" y="121.461" width="9.53846" height="9.53846" fill="#53B7FF"/>
<rect width="9.53846" height="9.53846" transform="matrix(-1 0 0 1 115.385 7)" fill="#6F6CFF"/>
<rect opacity="0.2" width="9.53846" height="9.53846" transform="matrix(-1 0 0 1 96.3081 7)" fill="#D7DEE4"/>
<rect opacity="0.4" width="9.53846" height="9.53846" transform="matrix(-1 0 0 1 86.7695 7)" fill="#D7DEE4"/>
<rect width="9.53846" height="9.53846" transform="matrix(-1 0 0 1 77.2305 7)" fill="#D7DEE4"/>
<rect opacity="0.6" width="9.53846" height="9.53846" transform="matrix(-1 0 0 1 144 26.0771)" fill="#53B7FF"/>
<rect opacity="0.8" width="9.53846" height="9.53846" transform="matrix(-1 0 0 1 144 35.6152)" fill="#53B7FF"/>
<rect opacity="0.9" width="9.53846" height="9.53846" transform="matrix(-1 0 0 1 144 45.1538)" fill="#53B7FF"/>
<rect width="9.53846" height="9.53846" transform="matrix(-1 0 0 1 144 54.6924)" fill="#53B7FF"/>
<rect opacity="0.9" width="9.53846" height="9.53846" transform="matrix(-1 0 0 1 144 64.231)" fill="#53B7FF"/>
<rect opacity="0.7" width="9.53846" height="9.53846" transform="matrix(-1 0 0 1 144 73.769)" fill="#53B7FF"/>
<rect opacity="0.6" width="9.53846" height="9.53846" transform="matrix(-1 0 0 1 144 83.3076)" fill="#53B7FF"/>
<rect opacity="0.4" width="9.53846" height="9.53846" transform="matrix(-1 0 0 1 144 92.8462)" fill="#53B7FF"/>
<rect opacity="0.4" width="9.53846" height="9.53846" transform="matrix(-1 0 0 1 144 102.385)" fill="#53B7FF"/>
<rect opacity="0.7" width="9.53846" height="9.53846" transform="matrix(-1 0 0 1 134.461 16.5386)" fill="#53B7FF"/>
<rect opacity="0.6" width="9.53846" height="9.53846" transform="matrix(-1 0 0 1 134.461 26.0771)" fill="#53B7FF"/>
<rect opacity="0.7" width="9.53846" height="9.53846" transform="matrix(-1 0 0 1 134.461 35.6152)" fill="#53B7FF"/>
<rect opacity="0.8" width="9.53846" height="9.53846" transform="matrix(-1 0 0 1 134.461 45.1538)" fill="#53B7FF"/>
<rect opacity="0.9" width="9.53846" height="9.53846" transform="matrix(-1 0 0 1 134.461 54.6924)" fill="#53B7FF"/>
<rect opacity="0.4" width="9.53846" height="9.53846" transform="matrix(-1 0 0 1 134.461 64.231)" fill="#53B7FF"/>
<rect opacity="0.8" width="9.53846" height="9.53846" transform="matrix(-1 0 0 1 134.461 73.769)" fill="#53B7FF"/>
<rect opacity="0.9" width="9.53846" height="9.53846" transform="matrix(-1 0 0 1 134.461 83.3076)" fill="#53B7FF"/>
<rect opacity="0.8" width="9.53846" height="9.53846" transform="matrix(-1 0 0 1 134.461 92.8462)" fill="#53B7FF"/>
<rect opacity="0.8" width="9.53846" height="9.53846" transform="matrix(-1 0 0 1 134.461 102.385)" fill="#53B7FF"/>
<rect opacity="0.9" width="9.53846" height="9.53846" transform="matrix(-1 0 0 1 134.461 111.923)" fill="#53B7FF"/>
<rect opacity="0.8" width="9.53846" height="9.53846" transform="matrix(-1 0 0 1 124.924 16.5386)" fill="#53B7FF"/>
<rect opacity="0.7" width="9.53846" height="9.53846" transform="matrix(-1 0 0 1 124.924 26.0771)" fill="#53B7FF"/>
<rect opacity="0.6" width="9.53846" height="9.53846" transform="matrix(-1 0 0 1 124.924 35.6152)" fill="#53B7FF"/>
<rect opacity="0.7" width="9.53846" height="9.53846" transform="matrix(-1 0 0 1 124.924 45.1538)" fill="#53B7FF"/>
<rect opacity="0.9" width="9.53846" height="9.53846" transform="matrix(-1 0 0 1 124.924 54.6924)" fill="#53B7FF"/>
<rect opacity="0.8" width="9.53846" height="9.53846" transform="matrix(-1 0 0 1 124.924 64.231)" fill="#53B7FF"/>
<rect opacity="0.6" width="9.53846" height="9.53846" transform="matrix(-1 0 0 1 124.924 73.769)" fill="#53B7FF"/>
<rect opacity="0.8" width="9.53846" height="9.53846" transform="matrix(-1 0 0 1 124.924 83.3076)" fill="#53B7FF"/>
<rect opacity="0.9" width="9.53846" height="9.53846" transform="matrix(-1 0 0 1 124.924 92.8462)" fill="#53B7FF"/>
<rect opacity="0.7" width="9.53846" height="9.53846" transform="matrix(-1 0 0 1 124.924 102.385)" fill="#53B7FF"/>
<rect opacity="0.5" width="9.53846" height="9.53846" transform="matrix(-1 0 0 1 124.924 111.923)" fill="#53B7FF"/>
<rect opacity="0.8" width="9.53846" height="9.53846" transform="matrix(-1 0 0 1 115.385 16.5386)" fill="#53B7FF"/>
<rect opacity="0.6" width="9.53846" height="9.53846" transform="matrix(-1 0 0 1 115.385 26.0771)" fill="#53B7FF"/>
<rect opacity="0.5" width="9.53846" height="9.53846" transform="matrix(-1 0 0 1 115.385 35.6152)" fill="#53B7FF"/>
<rect opacity="0.8" width="9.53846" height="9.53846" transform="matrix(-1 0 0 1 115.385 45.1538)" fill="#53B7FF"/>
<rect opacity="0.7" width="9.53846" height="9.53846" transform="matrix(-1 0 0 1 115.385 54.6924)" fill="#53B7FF"/>
<rect opacity="0.9" width="9.53846" height="9.53846" transform="matrix(-1 0 0 1 115.385 64.231)" fill="#53B7FF"/>
<rect opacity="0.8" width="9.53846" height="9.53846" transform="matrix(-1 0 0 1 115.385 73.769)" fill="#53B7FF"/>
<rect opacity="0.6" width="9.53846" height="9.53846" transform="matrix(-1 0 0 1 115.385 83.3076)" fill="#53B7FF"/>
<rect opacity="0.5" width="9.53846" height="9.53846" transform="matrix(-1 0 0 1 115.385 92.8462)" fill="#53B7FF"/>
<rect opacity="0.4" width="9.53846" height="9.53846" transform="matrix(-1 0 0 1 115.385 102.385)" fill="#53B7FF"/>
<rect opacity="0.2" width="9.53846" height="9.53846" transform="matrix(-1 0 0 1 115.385 111.923)" fill="#53B7FF"/>
<rect opacity="0.6" width="9.53846" height="9.53846" transform="matrix(-1 0 0 1 115.385 121.461)" fill="#53B7FF"/>
<circle cx="82.0004" cy="68.9999" r="55.641" fill="#6F6CFF" fill-opacity="0.01"/>
<circle cx="82.0004" cy="68.9999" r="54.891" stroke="black" stroke-opacity="0.07" stroke-width="1.5"/>
</g>
<path d="M44 78V219C44 227.837 51.1634 235 60 235H109" stroke="#FF6E6E" stroke-width="1.5" stroke-linecap="round" stroke-linejoin="round" stroke-dasharray="1 5"/>
<circle cx="44" cy="78" r="5" fill="#FF6F6F" stroke="white" stroke-width="2"/>
<g filter="url(#filter2_dd)">
<path d="M125 219C125 214.582 128.582 211 133 211H300C304.418 211 308 214.582 308 219V251C308 255.418 304.418 259 300 259H133C128.582 259 125 255.418 125 251V219Z" fill="#2E3544"/>
</g>
<path d="M178.976 241.18C180.956 241.18 182.27 239.776 182.27 237.508V234.61C182.27 232.324 180.974 230.92 178.976 230.92C177.5 230.92 176.474 231.712 176.294 232.99H176.24L176.276 230.74V227.86H174.656V241H176.276V239.11H176.294C176.456 240.406 177.482 241.18 178.976 241.18ZM178.436 239.776C177.104 239.776 176.276 238.894 176.276 237.4V234.7C176.276 233.206 177.104 232.324 178.436 232.324C179.804 232.324 180.65 233.17 180.65 234.7V237.4C180.65 238.93 179.804 239.776 178.436 239.776ZM186.691 244.24H189.823C191.767 244.24 192.919 243.142 192.919 241.36V231.1H191.317V232.99H191.299C191.173 231.712 190.165 230.92 188.671 230.92C186.637 230.92 185.377 232.342 185.377 234.592V236.68C185.377 238.948 186.637 240.37 188.671 240.37C190.165 240.37 191.173 239.578 191.299 238.3H191.335L191.299 240.1V241.36C191.299 242.314 190.849 242.764 189.841 242.764H186.691V244.24ZM189.157 238.966C187.789 238.966 186.997 238.12 186.997 236.59V234.7C186.997 233.17 187.789 232.324 189.157 232.324C190.489 232.324 191.317 233.206 191.317 234.7V236.59C191.317 238.084 190.489 238.966 189.157 238.966ZM197.106 235.78H202.866V234.34H197.106V235.78ZM211.355 241.18C213.335 241.18 214.649 239.776 214.649 237.508V234.61C214.649 232.324 213.353 230.92 211.355 230.92C209.879 230.92 208.853 231.712 208.673 232.99H208.619L208.655 230.74V227.86H207.035V241H208.655V239.11H208.673C208.835 240.406 209.861 241.18 211.355 241.18ZM210.815 239.776C209.483 239.776 208.655 238.894 208.655 237.4V234.7C208.655 233.206 209.483 232.324 210.815 232.324C212.183 232.324 213.029 233.17 213.029 234.7V237.4C213.029 238.93 212.183 239.776 210.815 239.776ZM223.012 241H226.072V239.524H223.012C222.238 239.524 221.752 239.02 221.752 238.21V227.86H216.712V229.336H220.132V238.21C220.132 239.902 221.266 241 223.012 241ZM232.347 241.18C234.633 241.18 236.145 239.722 236.145 237.4V231.1H234.525V237.4C234.525 238.894 233.697 239.758 232.347 239.758C231.015 239.758 230.205 238.894 230.205 237.4V231.1H228.585V237.4C228.585 239.722 230.061 241.18 232.347 241.18ZM243.158 241.18C245.246 241.18 246.776 240.136 246.992 238.48H245.372C245.192 239.362 244.4 239.812 243.158 239.812C241.682 239.812 240.872 238.966 240.872 237.4V236.446H247.028V234.7C247.028 232.414 245.498 230.92 243.158 230.92C240.818 230.92 239.288 232.414 239.288 234.7V237.4C239.288 239.686 240.818 241.18 243.158 241.18ZM240.872 235.222V234.7C240.872 233.134 241.682 232.27 243.158 232.27C244.634 232.27 245.444 233.134 245.444 234.7V235.222H240.872ZM251.071 235.78H256.831V234.34H251.071V235.78ZM264.708 241.18C267.174 241.18 268.614 239.722 268.614 237.4V236.122C268.614 233.746 267.354 232.342 265.23 232.36C263.934 232.36 263.052 232.864 262.818 233.71H262.746L262.8 229.336H268.146V227.86H261.234L261.144 235.132H262.764C263.07 234.322 263.808 233.782 264.744 233.782C266.238 233.782 266.994 234.628 266.994 236.122V237.4C266.994 238.894 266.238 239.74 264.726 239.74C263.394 239.74 262.62 239.146 262.494 238.12H260.874C261.108 239.992 262.566 241.18 264.708 241.18ZM275.537 241.18C277.949 241.18 279.497 239.65 279.497 237.31V231.55C279.497 229.192 277.967 227.68 275.537 227.68C273.107 227.68 271.577 229.192 271.577 231.55V237.31C271.577 239.668 273.107 241.18 275.537 241.18ZM275.537 239.794C274.097 239.794 273.143 238.768 273.143 237.31V231.55C273.143 230.092 274.097 229.066 275.537 229.066C276.977 229.066 277.931 230.092 277.931 231.55V237.31C277.931 238.768 276.977 239.794 275.537 239.794ZM275.537 235.492C276.185 235.492 276.617 235.042 276.617 234.376C276.617 233.728 276.185 233.296 275.537 233.296C274.889 233.296 274.457 233.728 274.457 234.376C274.457 235.042 274.889 235.492 275.537 235.492ZM286.33 241.18C288.742 241.18 290.29 239.65 290.29 237.31V231.55C290.29 229.192 288.76 227.68 286.33 227.68C283.9 227.68 282.37 229.192 282.37 231.55V237.31C282.37 239.668 283.9 241.18 286.33 241.18ZM286.33 239.794C284.89 239.794 283.936 238.768 283.936 237.31V231.55C283.936 230.092 284.89 229.066 286.33 229.066C287.77 229.066 288.724 230.092 288.724 231.55V237.31C288.724 238.768 287.77 239.794 286.33 239.794ZM286.33 235.492C286.978 235.492 287.41 235.042 287.41 234.376C287.41 233.728 286.978 233.296 286.33 233.296C285.682 233.296 285.25 233.728 285.25 234.376C285.25 235.042 285.682 235.492 286.33 235.492Z" fill="white"/>
<rect x="141" y="227" width="16" height="16" rx="3" fill="#64BCFF"/>
<defs>
<filter id="filter0_d" x="60" y="48" width="360" height="102" filterUnits="userSpaceOnUse" color-interpolation-filters="sRGB">
<feFlood flood-opacity="0" result="BackgroundImageFix"/>
<feColorMatrix in="SourceAlpha" type="matrix" values="0 0 0 0 0 0 0 0 0 0 0 0 0 0 0 0 0 0 127 0"/>
<feOffset dy="1"/>
<feGaussianBlur stdDeviation="1.5"/>
<feColorMatrix type="matrix" values="0 0 0 0 0.0823529 0 0 0 0 0.160784 0 0 0 0 0.352941 0 0 0 0.2 0"/>
<feBlend mode="normal" in2="BackgroundImageFix" result="effect1_dropShadow"/>
<feBlend mode="normal" in="SourceGraphic" in2="effect1_dropShadow" result="shape"/>
</filter>
<filter id="filter1_dd" x="4.5" y="0.5" width="155" height="155" filterUnits="userSpaceOnUse" color-interpolation-filters="sRGB">
<feFlood flood-opacity="0" result="BackgroundImageFix"/>
<feColorMatrix in="SourceAlpha" type="matrix" values="0 0 0 0 0 0 0 0 0 0 0 0 0 0 0 0 0 0 127 0"/>
<feOffset dy="9"/>
<feGaussianBlur stdDeviation="7"/>
<feColorMatrix type="matrix" values="0 0 0 0 0.0875 0 0 0 0 0.112689 0 0 0 0 0.166667 0 0 0 0.05 0"/>
<feBlend mode="normal" in2="BackgroundImageFix" result="effect1_dropShadow"/>
<feColorMatrix in="SourceAlpha" type="matrix" values="0 0 0 0 0 0 0 0 0 0 0 0 0 0 0 0 0 0 127 0"/>
<feOffset dy="4"/>
<feGaussianBlur stdDeviation="3"/>
<feColorMatrix type="matrix" values="0 0 0 0 0.180392 0 0 0 0 0.207843 0 0 0 0 0.266667 0 0 0 0.15 0"/>
<feBlend mode="normal" in2="effect1_dropShadow" result="effect2_dropShadow"/>
<feBlend mode="normal" in="SourceGraphic" in2="effect2_dropShadow" result="shape"/>
</filter>
<filter id="filter2_dd" x="109" y="195" width="215" height="80" filterUnits="userSpaceOnUse" color-interpolation-filters="sRGB">
<feFlood flood-opacity="0" result="BackgroundImageFix"/>
<feColorMatrix in="SourceAlpha" type="matrix" values="0 0 0 0 0 0 0 0 0 0 0 0 0 0 0 0 0 0 127 0"/>
<feOffset/>
<feGaussianBlur stdDeviation="8"/>
<feColorMatrix type="matrix" values="0 0 0 0 0.0509804 0 0 0 0 0.0862745 0 0 0 0 0.176471 0 0 0 0.14 0"/>
<feBlend mode="normal" in2="BackgroundImageFix" result="effect1_dropShadow"/>
<feColorMatrix in="SourceAlpha" type="matrix" values="0 0 0 0 0 0 0 0 0 0 0 0 0 0 0 0 0 0 127 0"/>
<feOffset dy="2"/>
<feGaussianBlur stdDeviation="1"/>
<feColorMatrix type="matrix" values="0 0 0 0 0.0495833 0 0 0 0 0.085936 0 0 0 0 0.175 0 0 0 0.15 0"/>
<feBlend mode="normal" in2="effect1_dropShadow" result="effect2_dropShadow"/>
<feBlend mode="normal" in="SourceGraphic" in2="effect2_dropShadow" result="shape"/>
</filter>
<linearGradient id="paint0_linear" x1="82" y1="7" x2="82" y2="131" gradientUnits="userSpaceOnUse">
<stop stop-color="white"/>
<stop offset="1" stop-color="#F4F5FA"/>
</linearGradient>
</defs>
</svg>
