<svg width="100%" height="100%"  viewBox="0 0 35 35" fill="none" xmlns="http://www.w3.org/2000/svg">
<rect opacity="0.5" x="14" y="14" width="16" height="16" rx="8" fill="#7987FF"/>
<circle opacity="0.5" cx="22" cy="22" r="12" stroke="#AEB5F2" stroke-opacity="0.7" stroke-width="1.5"/>
<path d="M29.25 16L29.9428 16.2873C30.0191 16.1033 30.0191 15.8967 29.9428 15.7127L29.25 16ZM2.75 16L2.05719 15.7127C1.98094 15.8967 1.98094 16.1033 2.05719 16.2873L2.75 16ZM29.25 16C28.5572 15.7127 28.5573 15.7125 28.5574 15.7123C28.5574 15.7123 28.5574 15.7122 28.5574 15.7122C28.5574 15.7122 28.5574 15.7123 28.5573 15.7126C28.557 15.7131 28.5565 15.7143 28.5558 15.7161C28.5543 15.7196 28.5518 15.7256 28.5482 15.7338C28.5411 15.7504 28.5299 15.7763 28.5146 15.8108C28.4839 15.8799 28.4367 15.9838 28.373 16.1173C28.2454 16.3846 28.0517 16.7702 27.7912 17.2346C27.2692 18.1652 26.4836 19.4033 25.4296 20.6381C23.3127 23.1179 20.1898 25.5 16 25.5V27C20.8102 27 24.3123 24.2571 26.5704 21.6119C27.7039 20.2842 28.5433 18.9598 29.0994 17.9685C29.3779 17.472 29.5866 17.0568 29.7266 16.7635C29.7967 16.6168 29.8496 16.5004 29.8856 16.4194C29.9036 16.3789 29.9173 16.3472 29.9268 16.325C29.9316 16.3139 29.9353 16.3051 29.938 16.2988C29.9393 16.2956 29.9404 16.2931 29.9412 16.2912C29.9416 16.2902 29.9419 16.2894 29.9422 16.2887C29.9423 16.2884 29.9425 16.288 29.9425 16.2879C29.9427 16.2876 29.9428 16.2873 29.25 16ZM16 25.5C11.8102 25.5 8.68732 23.1179 6.57042 20.6381C5.51638 19.4033 4.7308 18.1652 4.20879 17.2346C3.94826 16.7702 3.75461 16.3846 3.62704 16.1173C3.56328 15.9838 3.51611 15.8799 3.48542 15.8108C3.47008 15.7763 3.45887 15.7504 3.45177 15.7338C3.44822 15.7256 3.4457 15.7196 3.44421 15.7161C3.44346 15.7143 3.44297 15.7131 3.44274 15.7126C3.44262 15.7123 3.44257 15.7122 3.44258 15.7122C3.44258 15.7122 3.44264 15.7123 3.44264 15.7123C3.44272 15.7125 3.44281 15.7127 2.75 16C2.05719 16.2873 2.05731 16.2876 2.05745 16.2879C2.05752 16.288 2.05767 16.2884 2.05781 16.2887C2.05808 16.2894 2.05842 16.2902 2.05882 16.2912C2.05963 16.2931 2.06069 16.2956 2.06202 16.2988C2.06469 16.3051 2.0684 16.3139 2.07316 16.325C2.0827 16.3472 2.09645 16.3789 2.11443 16.4194C2.15039 16.5004 2.20332 16.6168 2.27336 16.7635C2.41336 17.0568 2.62205 17.472 2.90058 17.9685C3.4567 18.9598 4.29612 20.2842 5.42958 21.6119C7.68768 24.2571 11.1898 27 16 27V25.5ZM2.75 16C3.44281 16.2873 3.44272 16.2875 3.44264 16.2877C3.44264 16.2877 3.44258 16.2878 3.44258 16.2878C3.44257 16.2878 3.44262 16.2877 3.44274 16.2874C3.44297 16.2869 3.44346 16.2857 3.44421 16.2839C3.4457 16.2804 3.44822 16.2744 3.45177 16.2662C3.45887 16.2496 3.47008 16.2237 3.48542 16.1892C3.51611 16.1201 3.56328 16.0162 3.62704 15.8827C3.75461 15.6154 3.94826 15.2298 4.20879 14.7654C4.7308 13.8348 5.51638 12.5967 6.57042 11.3619C8.68732 8.88215 11.8102 6.5 16 6.5V5C11.1898 5 7.68768 7.74285 5.42958 10.3881C4.29612 11.7158 3.4567 13.0402 2.90058 14.0315C2.62205 14.528 2.41336 14.9432 2.27336 15.2365C2.20332 15.3832 2.15039 15.4996 2.11443 15.5806C2.09645 15.6211 2.0827 15.6528 2.07316 15.675C2.0684 15.6861 2.06469 15.6949 2.06202 15.7012C2.06069 15.7044 2.05963 15.7069 2.05882 15.7088C2.05842 15.7098 2.05808 15.7106 2.05781 15.7113C2.05767 15.7116 2.05752 15.712 2.05745 15.7121C2.05731 15.7124 2.05719 15.7127 2.75 16ZM16 6.5C20.1898 6.5 23.3127 8.88215 25.4296 11.3619C26.4836 12.5967 27.2692 13.8348 27.7912 14.7654C28.0517 15.2298 28.2454 15.6154 28.373 15.8827C28.4367 16.0162 28.4839 16.1201 28.5146 16.1892C28.5299 16.2237 28.5411 16.2496 28.5482 16.2662C28.5518 16.2744 28.5543 16.2804 28.5558 16.2839C28.5565 16.2857 28.557 16.2869 28.5573 16.2874C28.5574 16.2877 28.5574 16.2878 28.5574 16.2878C28.5574 16.2878 28.5574 16.2877 28.5574 16.2877C28.5573 16.2875 28.5572 16.2873 29.25 16C29.9428 15.7127 29.9427 15.7124 29.9425 15.7121C29.9425 15.712 29.9423 15.7116 29.9422 15.7113C29.9419 15.7106 29.9416 15.7098 29.9412 15.7088C29.9404 15.7069 29.9393 15.7044 29.938 15.7012C29.9353 15.6949 29.9316 15.6861 29.9268 15.675C29.9173 15.6528 29.9036 15.6211 29.8856 15.5806C29.8496 15.4996 29.7967 15.3832 29.7266 15.2365C29.5866 14.9432 29.3779 14.528 29.0994 14.0315C28.5433 13.0402 27.7039 11.7158 26.5704 10.3881C24.3123 7.74285 20.8102 5 16 5V6.5Z" fill="#15295A"/>
<path fill-rule="evenodd" clip-rule="evenodd" d="M21.2496 16.0633C20.8545 16.1847 20.4349 16.25 20 16.25C17.6528 16.25 15.75 14.3472 15.75 12C15.75 11.5651 15.8153 11.1455 15.9367 10.7504C13.0664 10.7843 10.75 13.1216 10.75 16C10.75 18.8995 13.1005 21.25 16 21.25C18.8784 21.25 21.2157 18.9336 21.2496 16.0633Z" fill="#15295A"/>
<path d="M21.2496 16.0633L21.9996 16.0722C22.0024 15.8327 21.8907 15.6062 21.6989 15.4628C21.5071 15.3193 21.2584 15.276 21.0294 15.3464L21.2496 16.0633ZM15.9367 10.7504L16.6536 10.9706C16.724 10.7416 16.6807 10.4929 16.5372 10.3011C16.3938 10.1093 16.1673 9.99759 15.9278 10.0004L15.9367 10.7504ZM21.0294 15.3464C20.7049 15.4461 20.3594 15.5 20 15.5V17C20.5104 17 21.0042 16.9233 21.4698 16.7803L21.0294 15.3464ZM20 15.5C18.067 15.5 16.5 13.933 16.5 12H15C15 14.7614 17.2386 17 20 17V15.5ZM16.5 12C16.5 11.6406 16.5539 11.2951 16.6536 10.9706L15.2197 10.5301C15.0767 10.9958 15 11.4896 15 12H16.5ZM11.5 16C11.5 13.5329 13.4855 11.5294 15.9455 11.5003L15.9278 10.0004C12.6473 10.0392 10 12.7104 10 16H11.5ZM16 20.5C13.5147 20.5 11.5 18.4853 11.5 16H10C10 19.3137 12.6863 22 16 22V20.5ZM20.4997 16.0545C20.4706 18.5145 18.4671 20.5 16 20.5V22C19.2896 22 21.9608 19.3527 21.9996 16.0722L20.4997 16.0545Z" fill="#15295A"/>
<path d="M16 5.5V2.75" stroke="#15295A" stroke-width="1.5" stroke-linecap="round" stroke-linejoin="round"/>
<path d="M21.25 6.90673L22.625 4.52516" stroke="#15295A" stroke-width="1.5" stroke-linecap="round" stroke-linejoin="round"/>
<path d="M10.75 6.90673L9.375 4.52516" stroke="#15295A" stroke-width="1.5" stroke-linecap="round" stroke-linejoin="round"/>
<path d="M16 26.5V29.25" stroke="#15295A" stroke-width="1.5" stroke-linecap="round" stroke-linejoin="round"/>
<path d="M10.75 25.0933L9.375 27.4748" stroke="#15295A" stroke-width="1.5" stroke-linecap="round" stroke-linejoin="round"/>
<path d="M21.25 25.0933L22.625 27.4748" stroke="#15295A" stroke-width="1.5" stroke-linecap="round" stroke-linejoin="round"/>
</svg>
