<svg @click="show = false" class="modalContentFade" width="10" height="10" viewBox="0 0 10 10" fill="none" xmlns="http://www.w3.org/2000/svg">
                        <path fill-rule="evenodd" clip-rule="evenodd" d="M4.29295 7.12133C4.68348 6.73081 5.31664 6.73081 5.70717 7.12133L7.58585 9.00002C7.97637 9.39054 8.60954 9.39054 9.00006 9.00002V9.00002C9.39059 8.60949 9.39059 7.97633 9.00006 7.5858L7.12138 5.70712C6.73086 5.3166 6.73086 4.68343 7.12138 4.29291L9.00006 2.41423C9.39059 2.0237 9.39059 1.39054 9.00006 1.00002V1.00002C8.60954 0.609491 7.97637 0.60949 7.58585 1.00001L5.70717 2.8787C5.31664 3.26922 4.68348 3.26922 4.29295 2.87869L2.41427 1.00001C2.02375 0.60949 1.39059 0.609491 1.00006 1.00002V1.00002C0.609537 1.39054 0.609536 2.0237 1.00006 2.41423L2.87874 4.29291C3.26927 4.68343 3.26927 5.3166 2.87874 5.70712L1.00006 7.5858C0.609536 7.97633 0.609537 8.60949 1.00006 9.00002V9.00002C1.39059 9.39054 2.02375 9.39054 2.41427 9.00002L4.29295 7.12133Z" fill="#454B51"/>
                    </svg>